<svg width="70" height="69" viewBox="0 0 70 69" fill="none" xmlns="http://www.w3.org/2000/svg">
<path d="M24.8535 41.3698C22.9577 41.3698 21.416 39.8333 21.416 37.9323V31.0469C21.416 29.1458 22.9577 27.6042 24.8535 27.6042C26.7546 27.6042 28.2962 29.1458 28.2962 31.0469V37.9323C28.2962 39.8333 26.7546 41.3698 24.8535 41.3698ZM45.5098 41.3698C43.6087 41.3698 42.0671 39.8333 42.0671 37.9323V31.0469C42.0671 29.1458 43.6087 27.6042 45.5098 27.6042C47.4056 27.6042 48.9473 29.1458 48.9473 31.0469V37.9323C48.9473 39.8333 47.4056 41.3698 45.5098 41.3698Z" fill="white"/>
<path d="M35.1816 0.0677032C16.1712 0.0677032 0.759766 15.4792 0.759766 34.4896V68.9115H35.1816C54.1921 68.9115 69.6035 53.5 69.6035 34.4896C69.6035 15.4792 54.1921 0.0677032 35.1816 0.0677032ZM62.9212 34.4323C62.9212 49.7552 50.5046 62.1719 35.1816 62.1719H7.44206V34.4323C7.44206 19.1146 19.8639 6.6927 35.1816 6.6927C50.5046 6.6927 62.9212 19.1146 62.9212 34.4323Z" fill="white"/>
</svg>
